<mxfile host="app.diagrams.net" modified="2023-03-01T04:57:14.876Z" agent="5.0 (Macintosh; Intel Mac OS X 10_15_7) AppleWebKit/537.36 (KHTML, like Gecko) Chrome/110.0.0.0 Safari/537.36" etag="X2b2RRuK410xDv3Noiby" version="20.8.23" type="github">
  <diagram name="Page-1" id="edf60f1a-56cd-e834-aa8a-f176f3a09ee4">
    <mxGraphModel dx="1434" dy="683" grid="1" gridSize="10" guides="1" tooltips="1" connect="1" arrows="1" fold="1" page="1" pageScale="1" pageWidth="1169" pageHeight="827" background="none" math="0" shadow="0">
      <root>
        <mxCell id="0" />
        <mxCell id="1" parent="0" />
        <mxCell id="gf-3BPXSnLXVmG5bwPaM-43" value="" style="rounded=0;whiteSpace=wrap;html=1;sketch=1;hachureGap=4;jiggle=2;curveFitting=1;fontFamily=Architects Daughter;fontSource=https%3A%2F%2Ffonts.googleapis.com%2Fcss%3Ffamily%3DArchitects%2BDaughter;fontSize=15;noLabel=1;labelBackgroundColor=none;opacity=50;fillColor=#fff2cc;strokeColor=#d6b656;" vertex="1" parent="1">
          <mxGeometry x="580" y="10" width="570" height="400" as="geometry" />
        </mxCell>
        <mxCell id="gf-3BPXSnLXVmG5bwPaM-44" value="" style="rounded=0;whiteSpace=wrap;html=1;sketch=1;hachureGap=4;jiggle=2;curveFitting=1;fontFamily=Architects Daughter;fontSource=https%3A%2F%2Ffonts.googleapis.com%2Fcss%3Ffamily%3DArchitects%2BDaughter;fontSize=15;noLabel=1;labelBackgroundColor=none;opacity=50;fillColor=#e1d5e7;strokeColor=#9673a6;" vertex="1" parent="1">
          <mxGeometry x="440" y="480" width="700" height="330" as="geometry" />
        </mxCell>
        <mxCell id="gf-3BPXSnLXVmG5bwPaM-46" value="" style="rounded=0;whiteSpace=wrap;html=1;sketch=1;hachureGap=4;jiggle=2;curveFitting=1;fontFamily=Architects Daughter;fontSource=https%3A%2F%2Ffonts.googleapis.com%2Fcss%3Ffamily%3DArchitects%2BDaughter;fontSize=15;noLabel=1;labelBackgroundColor=none;opacity=50;fillColor=#f8cecc;strokeColor=#b85450;" vertex="1" parent="1">
          <mxGeometry x="60" y="10" width="350" height="800" as="geometry" />
        </mxCell>
        <mxCell id="gf-3BPXSnLXVmG5bwPaM-7" value="点击进入" style="edgeStyle=orthogonalEdgeStyle;rounded=1;hachureGap=4;orthogonalLoop=1;jettySize=auto;html=1;fontFamily=Architects Daughter;fontSource=https%3A%2F%2Ffonts.googleapis.com%2Fcss%3Ffamily%3DArchitects%2BDaughter;fontSize=12;sketch=1;curveFitting=1;jiggle=2;" edge="1" parent="1" source="gf-3BPXSnLXVmG5bwPaM-1" target="gf-3BPXSnLXVmG5bwPaM-6">
          <mxGeometry relative="1" as="geometry" />
        </mxCell>
        <mxCell id="gf-3BPXSnLXVmG5bwPaM-1" value="页面 1&amp;nbsp;&lt;br&gt;&lt;font style=&quot;font-size: 12px;&quot;&gt;在iPos主界面加入调取&lt;br&gt;&amp;lt;Quick Quote&amp;gt;的Button&lt;/font&gt;" style="ellipse;whiteSpace=wrap;html=1;hachureGap=4;fontFamily=Architects Daughter;fontSource=https%3A%2F%2Ffonts.googleapis.com%2Fcss%3Ffamily%3DArchitects%2BDaughter;fontSize=20;rounded=1;sketch=1;curveFitting=1;jiggle=2;" vertex="1" parent="1">
          <mxGeometry x="140" y="130" width="195" height="90" as="geometry" />
        </mxCell>
        <mxCell id="gf-3BPXSnLXVmG5bwPaM-2" value="前端" style="shape=process;whiteSpace=wrap;html=1;backgroundOutline=1;hachureGap=4;fontFamily=Architects Daughter;fontSource=https%3A%2F%2Ffonts.googleapis.com%2Fcss%3Ffamily%3DArchitects%2BDaughter;fontSize=20;rounded=1;sketch=1;curveFitting=1;jiggle=2;fillColor=#f8cecc;strokeColor=#b85450;" vertex="1" parent="1">
          <mxGeometry x="97.5" y="30" width="290" height="80" as="geometry" />
        </mxCell>
        <mxCell id="gf-3BPXSnLXVmG5bwPaM-4" value="AI" style="shape=process;whiteSpace=wrap;html=1;backgroundOutline=1;hachureGap=4;fontFamily=Architects Daughter;fontSource=https%3A%2F%2Ffonts.googleapis.com%2Fcss%3Ffamily%3DArchitects%2BDaughter;fontSize=20;rounded=1;sketch=1;curveFitting=1;jiggle=2;fillColor=#fff2cc;strokeColor=#d6b656;" vertex="1" parent="1">
          <mxGeometry x="730" y="50" width="290" height="80" as="geometry" />
        </mxCell>
        <mxCell id="gf-3BPXSnLXVmG5bwPaM-9" value="" style="edgeStyle=orthogonalEdgeStyle;rounded=1;hachureGap=4;orthogonalLoop=1;jettySize=auto;html=1;fontFamily=Architects Daughter;fontSource=https%3A%2F%2Ffonts.googleapis.com%2Fcss%3Ffamily%3DArchitects%2BDaughter;fontSize=12;sketch=1;curveFitting=1;jiggle=2;" edge="1" parent="1" source="gf-3BPXSnLXVmG5bwPaM-6">
          <mxGeometry relative="1" as="geometry">
            <mxPoint x="237.5" y="430" as="targetPoint" />
          </mxGeometry>
        </mxCell>
        <mxCell id="gf-3BPXSnLXVmG5bwPaM-21" style="edgeStyle=orthogonalEdgeStyle;rounded=0;sketch=1;hachureGap=4;jiggle=2;curveFitting=1;orthogonalLoop=1;jettySize=auto;html=1;fontFamily=Architects Daughter;fontSource=https%3A%2F%2Ffonts.googleapis.com%2Fcss%3Ffamily%3DArchitects%2BDaughter;fontSize=15;" edge="1" parent="1" source="gf-3BPXSnLXVmG5bwPaM-6" target="gf-3BPXSnLXVmG5bwPaM-13">
          <mxGeometry relative="1" as="geometry" />
        </mxCell>
        <mxCell id="gf-3BPXSnLXVmG5bwPaM-6" value="页面 2&amp;nbsp;&lt;br&gt;&lt;span style=&quot;font-size: 12px;&quot;&gt;输入客户基本信息界面&lt;br&gt;语音录入自动开启&lt;br&gt;&lt;/span&gt;" style="ellipse;whiteSpace=wrap;html=1;hachureGap=4;fontFamily=Architects Daughter;fontSource=https%3A%2F%2Ffonts.googleapis.com%2Fcss%3Ffamily%3DArchitects%2BDaughter;fontSize=20;shadow=0;rounded=1;sketch=1;curveFitting=1;jiggle=2;" vertex="1" parent="1">
          <mxGeometry x="140" y="280" width="195" height="90" as="geometry" />
        </mxCell>
        <mxCell id="gf-3BPXSnLXVmG5bwPaM-29" style="edgeStyle=orthogonalEdgeStyle;rounded=0;sketch=1;hachureGap=4;jiggle=2;curveFitting=1;orthogonalLoop=1;jettySize=auto;html=1;fontFamily=Architects Daughter;fontSource=https%3A%2F%2Ffonts.googleapis.com%2Fcss%3Ffamily%3DArchitects%2BDaughter;fontSize=12;fontColor=#000000;entryX=0.498;entryY=0.186;entryDx=0;entryDy=0;entryPerimeter=0;" edge="1" parent="1" source="gf-3BPXSnLXVmG5bwPaM-8" target="gf-3BPXSnLXVmG5bwPaM-28">
          <mxGeometry relative="1" as="geometry" />
        </mxCell>
        <mxCell id="gf-3BPXSnLXVmG5bwPaM-8" value="页面 2&lt;br style=&quot;font-size: 19px;&quot;&gt;&lt;span style=&quot;font-size: 12px;&quot;&gt;将录入后的信息呈现出来&lt;br&gt;&lt;/span&gt;&lt;font style=&quot;font-size: 12px;&quot;&gt;并提供手动修改选项&lt;/font&gt;&amp;nbsp;" style="ellipse;whiteSpace=wrap;html=1;hachureGap=4;fontFamily=Architects Daughter;fontSource=https%3A%2F%2Ffonts.googleapis.com%2Fcss%3Ffamily%3DArchitects%2BDaughter;fontSize=20;shadow=0;rounded=1;sketch=1;curveFitting=1;jiggle=2;" vertex="1" parent="1">
          <mxGeometry x="140" y="410" width="195" height="90" as="geometry" />
        </mxCell>
        <mxCell id="gf-3BPXSnLXVmG5bwPaM-10" value="页面 3&lt;br style=&quot;font-size: 19px;&quot;&gt;&lt;span style=&quot;font-size: 12px;&quot;&gt;呈现quotation的pdf文件预览&lt;br&gt;及&lt;/span&gt;&lt;font style=&quot;font-size: 12px;&quot;&gt;按钮&lt;br&gt;&amp;nbsp;“发送至：手机号/邮箱/telegram”&lt;/font&gt;&amp;nbsp;" style="ellipse;whiteSpace=wrap;html=1;hachureGap=4;fontFamily=Architects Daughter;fontSource=https%3A%2F%2Ffonts.googleapis.com%2Fcss%3Ffamily%3DArchitects%2BDaughter;fontSize=20;shadow=0;rounded=1;sketch=1;curveFitting=1;jiggle=2;" vertex="1" parent="1">
          <mxGeometry x="87.5" y="690" width="300" height="110" as="geometry" />
        </mxCell>
        <mxCell id="gf-3BPXSnLXVmG5bwPaM-17" style="edgeStyle=orthogonalEdgeStyle;rounded=0;sketch=1;hachureGap=4;jiggle=2;curveFitting=1;orthogonalLoop=1;jettySize=auto;html=1;fontFamily=Architects Daughter;fontSource=https%3A%2F%2Ffonts.googleapis.com%2Fcss%3Ffamily%3DArchitects%2BDaughter;fontSize=15;" edge="1" parent="1" target="gf-3BPXSnLXVmG5bwPaM-16">
          <mxGeometry relative="1" as="geometry">
            <mxPoint x="720" y="325" as="sourcePoint" />
          </mxGeometry>
        </mxCell>
        <mxCell id="gf-3BPXSnLXVmG5bwPaM-13" value="voice 数据" style="shape=parallelogram;perimeter=parallelogramPerimeter;whiteSpace=wrap;html=1;fixedSize=1;shadow=0;hachureGap=4;fontFamily=Architects Daughter;fontSource=https%3A%2F%2Ffonts.googleapis.com%2Fcss%3Ffamily%3DArchitects%2BDaughter;fontSize=15;rounded=1;sketch=1;curveFitting=1;jiggle=2;fillColor=#d5e8d4;strokeColor=#82b366;" vertex="1" parent="1">
          <mxGeometry x="610" y="295" width="120" height="60" as="geometry" />
        </mxCell>
        <mxCell id="gf-3BPXSnLXVmG5bwPaM-19" style="edgeStyle=orthogonalEdgeStyle;rounded=0;sketch=1;hachureGap=4;jiggle=2;curveFitting=1;orthogonalLoop=1;jettySize=auto;html=1;fontFamily=Architects Daughter;fontSource=https%3A%2F%2Ffonts.googleapis.com%2Fcss%3Ffamily%3DArchitects%2BDaughter;fontSize=15;" edge="1" parent="1" source="gf-3BPXSnLXVmG5bwPaM-16">
          <mxGeometry relative="1" as="geometry">
            <mxPoint x="1033.8000000000002" y="325" as="targetPoint" />
          </mxGeometry>
        </mxCell>
        <mxCell id="gf-3BPXSnLXVmG5bwPaM-16" value="&lt;font style=&quot;font-size: 14px;&quot;&gt;voice-to-text&lt;br&gt;&amp;nbsp;model&lt;/font&gt;" style="strokeWidth=2;html=1;shape=mxgraph.flowchart.direct_data;whiteSpace=wrap;sketch=1;hachureGap=4;jiggle=2;curveFitting=1;fontFamily=Architects Daughter;fontSource=https%3A%2F%2Ffonts.googleapis.com%2Fcss%3Ffamily%3DArchitects%2BDaughter;fontSize=20;" vertex="1" parent="1">
          <mxGeometry x="800" y="295" width="150" height="60" as="geometry" />
        </mxCell>
        <mxCell id="gf-3BPXSnLXVmG5bwPaM-45" style="edgeStyle=orthogonalEdgeStyle;rounded=0;sketch=1;hachureGap=4;jiggle=2;curveFitting=1;orthogonalLoop=1;jettySize=auto;html=1;fontFamily=Architects Daughter;fontSource=https%3A%2F%2Ffonts.googleapis.com%2Fcss%3Ffamily%3DArchitects%2BDaughter;fontSize=15;fontColor=none;entryX=1;entryY=0.5;entryDx=0;entryDy=0;" edge="1" parent="1" source="gf-3BPXSnLXVmG5bwPaM-18" target="gf-3BPXSnLXVmG5bwPaM-8">
          <mxGeometry relative="1" as="geometry">
            <mxPoint x="1090" y="450" as="targetPoint" />
            <Array as="points">
              <mxPoint x="1080" y="450" />
              <mxPoint x="335" y="450" />
            </Array>
          </mxGeometry>
        </mxCell>
        <mxCell id="gf-3BPXSnLXVmG5bwPaM-18" value="text 数据" style="shape=parallelogram;html=1;strokeWidth=2;perimeter=parallelogramPerimeter;whiteSpace=wrap;rounded=1;arcSize=12;size=0.23;sketch=1;hachureGap=4;jiggle=2;curveFitting=1;fontFamily=Architects Daughter;fontSource=https%3A%2F%2Ffonts.googleapis.com%2Fcss%3Ffamily%3DArchitects%2BDaughter;fontSize=15;fillColor=#d5e8d4;strokeColor=#82b366;" vertex="1" parent="1">
          <mxGeometry x="1020" y="295" width="120" height="60" as="geometry" />
        </mxCell>
        <mxCell id="gf-3BPXSnLXVmG5bwPaM-25" style="edgeStyle=orthogonalEdgeStyle;rounded=0;sketch=1;hachureGap=4;jiggle=2;curveFitting=1;orthogonalLoop=1;jettySize=auto;html=1;fontFamily=Architects Daughter;fontSource=https%3A%2F%2Ffonts.googleapis.com%2Fcss%3Ffamily%3DArchitects%2BDaughter;fontSize=15;" edge="1" parent="1" source="gf-3BPXSnLXVmG5bwPaM-23" target="gf-3BPXSnLXVmG5bwPaM-16">
          <mxGeometry relative="1" as="geometry" />
        </mxCell>
        <mxCell id="gf-3BPXSnLXVmG5bwPaM-23" value="voice 数据" style="shape=parallelogram;perimeter=parallelogramPerimeter;whiteSpace=wrap;html=1;fixedSize=1;shadow=0;hachureGap=4;fontFamily=Architects Daughter;fontSource=https%3A%2F%2Ffonts.googleapis.com%2Fcss%3Ffamily%3DArchitects%2BDaughter;fontSize=15;rounded=1;sketch=1;curveFitting=1;jiggle=2;fillColor=#d5e8d4;strokeColor=#82b366;" vertex="1" parent="1">
          <mxGeometry x="660" y="140" width="120" height="60" as="geometry" />
        </mxCell>
        <mxCell id="gf-3BPXSnLXVmG5bwPaM-26" style="edgeStyle=orthogonalEdgeStyle;rounded=0;sketch=1;hachureGap=4;jiggle=2;curveFitting=1;orthogonalLoop=1;jettySize=auto;html=1;entryX=0.5;entryY=0;entryDx=0;entryDy=0;entryPerimeter=0;fontFamily=Architects Daughter;fontSource=https%3A%2F%2Ffonts.googleapis.com%2Fcss%3Ffamily%3DArchitects%2BDaughter;fontSize=15;" edge="1" parent="1" source="gf-3BPXSnLXVmG5bwPaM-24" target="gf-3BPXSnLXVmG5bwPaM-16">
          <mxGeometry relative="1" as="geometry">
            <Array as="points">
              <mxPoint x="875" y="170" />
            </Array>
          </mxGeometry>
        </mxCell>
        <mxCell id="gf-3BPXSnLXVmG5bwPaM-27" value="Train，Fine-tune，Deploy" style="edgeLabel;html=1;align=center;verticalAlign=middle;resizable=0;points=[];fontSize=15;fontFamily=Architects Daughter;fontColor=#FF3333;" vertex="1" connectable="0" parent="gf-3BPXSnLXVmG5bwPaM-26">
          <mxGeometry x="0.3913" y="2" relative="1" as="geometry">
            <mxPoint as="offset" />
          </mxGeometry>
        </mxCell>
        <mxCell id="gf-3BPXSnLXVmG5bwPaM-24" value="voice-to-text&lt;br&gt;现有模型" style="strokeWidth=2;html=1;shape=mxgraph.flowchart.loop_limit;whiteSpace=wrap;sketch=1;hachureGap=4;jiggle=2;curveFitting=1;fontFamily=Architects Daughter;fontSource=https%3A%2F%2Ffonts.googleapis.com%2Fcss%3Ffamily%3DArchitects%2BDaughter;fontSize=15;" vertex="1" parent="1">
          <mxGeometry x="960" y="140" width="100" height="60" as="geometry" />
        </mxCell>
        <mxCell id="gf-3BPXSnLXVmG5bwPaM-30" style="edgeStyle=orthogonalEdgeStyle;rounded=0;sketch=1;hachureGap=4;jiggle=2;curveFitting=1;orthogonalLoop=1;jettySize=auto;html=1;entryX=0.5;entryY=0;entryDx=0;entryDy=0;fontFamily=Architects Daughter;fontSource=https%3A%2F%2Ffonts.googleapis.com%2Fcss%3Ffamily%3DArchitects%2BDaughter;fontSize=12;fontColor=#000000;" edge="1" parent="1" source="gf-3BPXSnLXVmG5bwPaM-28" target="gf-3BPXSnLXVmG5bwPaM-10">
          <mxGeometry relative="1" as="geometry" />
        </mxCell>
        <mxCell id="gf-3BPXSnLXVmG5bwPaM-31" style="edgeStyle=orthogonalEdgeStyle;rounded=0;sketch=1;hachureGap=4;jiggle=2;curveFitting=1;orthogonalLoop=1;jettySize=auto;html=1;fontFamily=Architects Daughter;fontSource=https%3A%2F%2Ffonts.googleapis.com%2Fcss%3Ffamily%3DArchitects%2BDaughter;fontSize=15;fontColor=#000000;" edge="1" parent="1" source="gf-3BPXSnLXVmG5bwPaM-28">
          <mxGeometry relative="1" as="geometry">
            <mxPoint x="470" y="625" as="targetPoint" />
          </mxGeometry>
        </mxCell>
        <mxCell id="gf-3BPXSnLXVmG5bwPaM-28" value="&lt;font color=&quot;#000000&quot; style=&quot;font-size: 15px;&quot;&gt;（核对信息无误/修改信息）后点击“确认”按钮&lt;/font&gt;" style="html=1;strokeWidth=2;shape=manualInput;whiteSpace=wrap;rounded=1;size=26;arcSize=11;sketch=1;hachureGap=4;jiggle=2;curveFitting=1;fontFamily=Architects Daughter;fontSource=https%3A%2F%2Ffonts.googleapis.com%2Fcss%3Ffamily%3DArchitects%2BDaughter;fontSize=15;fontColor=#FF3333;spacing=2;spacingBottom=-19;" vertex="1" parent="1">
          <mxGeometry x="97.5" y="590" width="280" height="70" as="geometry" />
        </mxCell>
        <mxCell id="gf-3BPXSnLXVmG5bwPaM-36" style="edgeStyle=orthogonalEdgeStyle;rounded=0;sketch=1;hachureGap=4;jiggle=2;curveFitting=1;orthogonalLoop=1;jettySize=auto;html=1;entryX=0;entryY=0.5;entryDx=0;entryDy=0;fontFamily=Architects Daughter;fontSource=https%3A%2F%2Ffonts.googleapis.com%2Fcss%3Ffamily%3DArchitects%2BDaughter;fontSize=15;fontColor=#000000;" edge="1" parent="1" source="gf-3BPXSnLXVmG5bwPaM-32" target="gf-3BPXSnLXVmG5bwPaM-35">
          <mxGeometry relative="1" as="geometry" />
        </mxCell>
        <mxCell id="gf-3BPXSnLXVmG5bwPaM-32" value="AIA iPos&lt;br&gt;Calculation Engine API" style="strokeWidth=2;html=1;shape=mxgraph.flowchart.display;whiteSpace=wrap;sketch=1;hachureGap=4;jiggle=2;curveFitting=1;fontFamily=Architects Daughter;fontSource=https%3A%2F%2Ffonts.googleapis.com%2Fcss%3Ffamily%3DArchitects%2BDaughter;fontSize=15;fontColor=#000000;" vertex="1" parent="1">
          <mxGeometry x="670" y="595" width="230" height="60" as="geometry" />
        </mxCell>
        <mxCell id="gf-3BPXSnLXVmG5bwPaM-34" style="edgeStyle=orthogonalEdgeStyle;rounded=0;sketch=1;hachureGap=4;jiggle=2;curveFitting=1;orthogonalLoop=1;jettySize=auto;html=1;entryX=0;entryY=0.5;entryDx=0;entryDy=0;entryPerimeter=0;fontFamily=Architects Daughter;fontSource=https%3A%2F%2Ffonts.googleapis.com%2Fcss%3Ffamily%3DArchitects%2BDaughter;fontSize=15;fontColor=#000000;" edge="1" parent="1" source="gf-3BPXSnLXVmG5bwPaM-33" target="gf-3BPXSnLXVmG5bwPaM-32">
          <mxGeometry relative="1" as="geometry" />
        </mxCell>
        <mxCell id="gf-3BPXSnLXVmG5bwPaM-33" value="text 数据" style="shape=parallelogram;html=1;strokeWidth=2;perimeter=parallelogramPerimeter;whiteSpace=wrap;rounded=1;arcSize=12;size=0.23;sketch=1;hachureGap=4;jiggle=2;curveFitting=1;fontFamily=Architects Daughter;fontSource=https%3A%2F%2Ffonts.googleapis.com%2Fcss%3Ffamily%3DArchitects%2BDaughter;fontSize=15;fillColor=#d5e8d4;strokeColor=#82b366;" vertex="1" parent="1">
          <mxGeometry x="460" y="595" width="140" height="60" as="geometry" />
        </mxCell>
        <mxCell id="gf-3BPXSnLXVmG5bwPaM-39" style="edgeStyle=orthogonalEdgeStyle;rounded=0;sketch=1;hachureGap=4;jiggle=2;curveFitting=1;orthogonalLoop=1;jettySize=auto;html=1;fontFamily=Architects Daughter;fontSource=https%3A%2F%2Ffonts.googleapis.com%2Fcss%3Ffamily%3DArchitects%2BDaughter;fontSize=15;fontColor=#000000;entryX=1;entryY=0.5;entryDx=0;entryDy=0;" edge="1" parent="1" source="gf-3BPXSnLXVmG5bwPaM-35" target="gf-3BPXSnLXVmG5bwPaM-37">
          <mxGeometry relative="1" as="geometry">
            <mxPoint x="990" y="750" as="targetPoint" />
            <Array as="points">
              <mxPoint x="1120" y="625" />
              <mxPoint x="1120" y="750" />
              <mxPoint x="900" y="750" />
            </Array>
          </mxGeometry>
        </mxCell>
        <mxCell id="gf-3BPXSnLXVmG5bwPaM-35" value="quotation值&lt;br&gt;（num数据）" style="shape=parallelogram;html=1;strokeWidth=2;perimeter=parallelogramPerimeter;whiteSpace=wrap;rounded=1;arcSize=12;size=0.23;sketch=1;hachureGap=4;jiggle=2;curveFitting=1;fontFamily=Architects Daughter;fontSource=https%3A%2F%2Ffonts.googleapis.com%2Fcss%3Ffamily%3DArchitects%2BDaughter;fontSize=15;fillColor=#d5e8d4;strokeColor=#82b366;" vertex="1" parent="1">
          <mxGeometry x="950" y="595" width="150" height="60" as="geometry" />
        </mxCell>
        <mxCell id="gf-3BPXSnLXVmG5bwPaM-38" style="edgeStyle=orthogonalEdgeStyle;rounded=0;sketch=1;hachureGap=4;jiggle=2;curveFitting=1;orthogonalLoop=1;jettySize=auto;html=1;entryX=1;entryY=0.5;entryDx=0;entryDy=0;fontFamily=Architects Daughter;fontSource=https%3A%2F%2Ffonts.googleapis.com%2Fcss%3Ffamily%3DArchitects%2BDaughter;fontSize=15;fontColor=#000000;" edge="1" parent="1" source="gf-3BPXSnLXVmG5bwPaM-37" target="gf-3BPXSnLXVmG5bwPaM-10">
          <mxGeometry relative="1" as="geometry" />
        </mxCell>
        <mxCell id="gf-3BPXSnLXVmG5bwPaM-37" value="简易Quotation报告&lt;br&gt;pdf版本" style="ellipse;whiteSpace=wrap;html=1;sketch=1;hachureGap=4;jiggle=2;curveFitting=1;fontFamily=Architects Daughter;fontSource=https%3A%2F%2Ffonts.googleapis.com%2Fcss%3Ffamily%3DArchitects%2BDaughter;fontSize=15;fontColor=#000000;" vertex="1" parent="1">
          <mxGeometry x="680" y="705" width="220" height="80" as="geometry" />
        </mxCell>
        <mxCell id="gf-3BPXSnLXVmG5bwPaM-40" value="项目组协作" style="shape=process;whiteSpace=wrap;html=1;backgroundOutline=1;hachureGap=4;fontFamily=Architects Daughter;fontSource=https%3A%2F%2Ffonts.googleapis.com%2Fcss%3Ffamily%3DArchitects%2BDaughter;fontSize=20;rounded=1;sketch=1;curveFitting=1;jiggle=2;fillColor=#e1d5e7;strokeColor=#9673a6;" vertex="1" parent="1">
          <mxGeometry x="650" y="490" width="290" height="80" as="geometry" />
        </mxCell>
        <mxCell id="gf-3BPXSnLXVmG5bwPaM-47" value="&lt;font style=&quot;font-size: 20px;&quot;&gt;&lt;span style=&quot;font-size: 20px;&quot;&gt;&amp;lt;Quick Quote&amp;gt;&lt;br style=&quot;font-size: 20px;&quot;&gt;Workflow&lt;/span&gt;&lt;/font&gt;" style="shape=trapezoid;perimeter=trapezoidPerimeter;whiteSpace=wrap;html=1;fixedSize=1;labelBackgroundColor=none;sketch=1;hachureGap=4;jiggle=2;curveFitting=1;fontFamily=Architects Daughter;fontSource=https%3A%2F%2Ffonts.googleapis.com%2Fcss%3Ffamily%3DArchitects%2BDaughter;fontSize=20;fontColor=none;opacity=50;fontStyle=5" vertex="1" parent="1">
          <mxGeometry x="410" y="60" width="160" height="90" as="geometry" />
        </mxCell>
      </root>
    </mxGraphModel>
  </diagram>
</mxfile>
